# xmcd
#
# Track frame offsets:
#	150
#	17015
#	37247
#	52229
#	69655
#	91260
#	118038
#	133522
#	155494
#
# Disc length: 2394 seconds
#
# Revision: 0
# Processed by: cddbd v1.5.2PL0 Copyright (c) Steve Scherf et al.
# Submitted via: EasyCDDAExtractor 12.0.1.1
#
DISCID=7d095809
DTITLE=Chris Hiatt Experience - Live at Bootsie's Hideaway
DYEAR=2009
DGENRE=Blues
TTITLE0=Come On (part 4)
TTITLE1=Next to My Woman
TTITLE2=Love Me Two Times
TTITLE3=Rise Again
TTITLE4=Tightrope
TTITLE5=Two Day Blues
TTITLE6=One O'Clock Girl
TTITLE7=Look at Little Sister
TTITLE8=I Will Survive
EXTD=
EXTT0=
EXTT1=
EXTT2=
EXTT3=
EXTT4=
EXTT5=
EXTT6=
EXTT7=
EXTT8=
PLAYORDER=
